<svg width="89" height="88" viewBox="0 0 89 88" fill="none" xmlns="http://www.w3.org/2000/svg">
<rect x="1" y="1" width="87" height="86" rx="43" fill="white" stroke="#899481" stroke-width="2"/>
<rect x="12" y="12" width="65" height="64" rx="32" fill="#899481" stroke="#899481" stroke-width="2"/>
<path d="M32.6667 50.4957L37.5787 35.7597C37.702 35.3919 37.9378 35.0722 38.2526 34.8457C38.5675 34.6192 38.9455 34.4973 39.3334 34.4973C39.7213 34.4973 40.0993 34.6192 40.4142 34.8457C40.7291 35.0722 40.9648 35.3919 41.0881 35.7597L46.0001 50.4957M54.0001 34.4957V50.4957M35.3334 45.1623H43.3334" stroke="white" stroke-width="3" stroke-linecap="round" stroke-linejoin="round"/>
<path d="M68.696 49.421C70.088 49.045 70.784 48.8557 71.0587 48.4983C71.3333 48.1383 71.3333 47.5623 71.3333 46.4077V41.2503C71.3333 40.0957 71.3333 39.517 71.0587 39.1597C70.784 38.8023 70.088 38.613 68.696 38.2397C63.496 36.837 60.24 31.3997 61.5813 26.2317C61.952 24.8103 62.136 24.0983 61.96 23.6823C61.784 23.2663 61.2773 22.9783 60.2667 22.405L55.6667 19.7917C54.6747 19.2317 54.1787 18.949 53.7333 19.0077C53.288 19.0663 52.784 19.5677 51.7787 20.573C47.888 24.453 41.4507 24.453 37.5573 20.573C36.552 19.5703 36.0507 19.069 35.6053 19.0077C35.16 18.949 34.664 19.229 33.672 19.7943L29.072 22.405C28.0587 22.9783 27.552 23.2663 27.3787 23.685C27.2027 24.0983 27.3867 24.8103 27.7547 26.2317C29.096 31.3997 25.84 36.837 20.6373 38.2397C19.2453 38.613 18.5493 38.7997 18.2747 39.1597C18 39.5197 18 40.0957 18 41.2503V46.4077C18 47.5623 18 48.141 18.2747 48.4983C18.5493 48.8557 19.2453 49.045 20.6373 49.421C25.8373 50.8237 29.0933 56.261 27.752 61.4263C27.3813 62.8477 27.1973 63.5597 27.3733 63.9757C27.5493 64.3917 28.056 64.6797 29.0667 65.2557L33.6667 67.8637C34.6587 68.429 35.1547 68.709 35.6 68.6503C36.0453 68.5917 36.5493 68.0903 37.5547 67.085C41.448 63.1997 47.8907 63.1997 51.784 67.085C52.7893 68.0877 53.2907 68.589 53.736 68.6503C54.1813 68.709 54.6773 68.429 55.672 67.8637L60.2693 65.253C61.2827 64.6797 61.7893 64.3917 61.9627 63.973C62.136 63.5543 61.9547 62.8477 61.5867 61.4263C60.2427 56.261 63.496 50.8237 68.696 49.421Z" stroke="white" stroke-width="3" stroke-linecap="round" stroke-linejoin="round"/>
</svg>
