<svg width="88" height="88" viewBox="0 0 88 88" fill="none" xmlns="http://www.w3.org/2000/svg">
<circle cx="44" cy="44" r="44" fill="white"/>
<rect x="12" y="12" width="64" height="64" rx="32" fill="#899481" stroke="#899481" stroke-width="2"/>
<path d="M32.3433 50.4957L37.1819 35.7597C37.3034 35.3919 37.5356 35.0722 37.8458 34.8457C38.1559 34.6192 38.5283 34.4973 38.9104 34.4973C39.2925 34.4973 39.6649 34.6192 39.9751 34.8457C40.2852 35.0722 40.5174 35.3919 40.6389 35.7597L45.4776 50.4957M53.3582 34.4957V50.4957M34.9701 45.1623H42.8507" stroke="white" stroke-width="3" stroke-linecap="round" stroke-linejoin="round"/>
<path d="M67.8348 49.421C69.2061 49.045 69.8917 48.8557 70.1623 48.4983C70.4328 48.1383 70.4328 47.5623 70.4328 46.4077V41.2503C70.4328 40.0957 70.4328 39.517 70.1623 39.1597C69.8917 38.8023 69.2061 38.613 67.8348 38.2397C62.7125 36.837 59.5051 31.3997 60.8264 26.2317C61.1915 24.8103 61.3728 24.0983 61.1994 23.6823C61.026 23.2663 60.5269 22.9783 59.5313 22.405L55 19.7917C54.0228 19.2317 53.5342 18.949 53.0955 19.0077C52.6568 19.0663 52.1603 19.5677 51.17 20.573C47.3374 24.453 40.9962 24.453 37.1609 20.573C36.1706 19.5703 35.6768 19.069 35.2381 19.0077C34.7994 18.949 34.3108 19.229 33.3336 19.7943L28.8023 22.405C27.804 22.9783 27.3049 23.2663 27.1342 23.685C26.9608 24.0983 27.1421 24.8103 27.5046 26.2317C28.8259 31.3997 25.6185 36.837 20.4935 38.2397C19.1223 38.613 18.4366 38.7997 18.1661 39.1597C17.8955 39.5197 17.8955 40.0957 17.8955 41.2503V46.4077C17.8955 47.5623 17.8955 48.141 18.1661 48.4983C18.4366 48.8557 19.1223 49.045 20.4935 49.421C25.6159 50.8237 28.8233 56.261 27.502 61.4263C27.1368 62.8477 26.9556 63.5597 27.1289 63.9757C27.3023 64.3917 27.8014 64.6797 28.797 65.2557L33.3283 67.8637C34.3055 68.429 34.7941 68.709 35.2328 68.6503C35.6715 68.5917 36.168 68.0903 37.1583 67.085C40.9935 63.1997 47.34 63.1997 51.1753 67.085C52.1656 68.0877 52.6594 68.589 53.0981 68.6503C53.5368 68.709 54.0254 68.429 55.0052 67.8637L59.534 65.253C60.5322 64.6797 61.0313 64.3917 61.202 63.973C61.3728 63.5543 61.1941 62.8477 60.8316 61.4263C59.5077 56.261 62.7125 50.8237 67.8348 49.421Z" stroke="white" stroke-width="3" stroke-linecap="round" stroke-linejoin="round"/>
</svg>
