<svg width="89" height="88" viewBox="0 0 89 88" fill="none" xmlns="http://www.w3.org/2000/svg">
<rect x="1" y="1" width="87" height="86" rx="43" fill="white" stroke="#899481" stroke-width="2"/>
<rect x="11" y="12" width="65" height="64" rx="32" fill="#899481" stroke="#899481" stroke-width="2"/>
<path d="M44.5 26.875C44.5028 25.9251 44.3156 24.9842 43.9494 24.1076C43.5833 23.2311 43.0455 22.4367 42.3679 21.771C41.6902 21.1053 40.8862 20.5819 40.0033 20.2315C39.1203 19.8811 38.1762 19.7108 37.2265 19.7306C36.2768 19.7503 35.3406 19.9599 34.473 20.3468C33.6055 20.7337 32.824 21.2901 32.1747 21.9835C31.5253 22.6768 31.0211 23.493 30.6918 24.384C30.3625 25.275 30.2147 26.2229 30.2571 27.1719C28.8611 27.5308 27.565 28.2027 26.4671 29.1367C25.3692 30.0707 24.4983 31.2423 23.9202 32.5628C23.3422 33.8832 23.0721 35.3179 23.1306 36.7581C23.1891 38.1984 23.5746 39.6064 24.2578 40.8756C23.0565 41.8516 22.1119 43.1063 21.506 44.5306C20.9002 45.9549 20.6515 47.5057 20.7817 49.048C20.9119 50.5903 21.4169 52.0774 22.2529 53.3801C23.0888 54.6827 24.2304 55.7613 25.5783 56.5221C25.4119 57.8099 25.5112 59.1182 25.8702 60.3661C26.2292 61.614 26.8402 62.7751 27.6655 63.7776C28.4907 64.7802 29.5128 65.6029 30.6685 66.1949C31.8242 66.787 33.089 67.1358 34.3848 67.2199C35.6806 67.304 36.9799 67.1216 38.2024 66.6838C39.4249 66.2461 40.5447 65.5624 41.4926 64.6749C42.4406 63.7875 43.1965 62.7151 43.7138 61.524C44.231 60.333 44.4986 59.0485 44.5 57.75V26.875Z" stroke="white" stroke-width="3" stroke-linecap="round" stroke-linejoin="round"/>
<path d="M44.5 26.875C44.4972 25.9251 44.6844 24.9842 45.0506 24.1076C45.4167 23.2311 45.9545 22.4367 46.6321 21.771C47.3098 21.1053 48.1138 20.5819 48.9967 20.2315C49.8797 19.8811 50.8238 19.7108 51.7735 19.7306C52.7232 19.7503 53.6594 19.9599 54.527 20.3468C55.3945 20.7337 56.176 21.2901 56.8253 21.9835C57.4747 22.6768 57.9788 23.493 58.3082 24.384C58.6375 25.275 58.7853 26.2229 58.7429 27.1719C60.1389 27.5308 61.435 28.2027 62.5329 29.1367C63.6308 30.0707 64.5017 31.2423 65.0798 32.5628C65.6578 33.8832 65.9279 35.3179 65.8694 36.7581C65.8109 38.1984 65.4254 39.6064 64.7422 40.8756C65.9435 41.8516 66.8881 43.1063 67.494 44.5306C68.0998 45.9549 68.3485 47.5057 68.2183 49.048C68.0881 50.5903 67.5831 52.0774 66.7471 53.3801C65.9111 54.6827 64.7696 55.7613 63.4217 56.5221C63.5881 57.8099 63.4888 59.1182 63.1298 60.3661C62.7708 61.614 62.1598 62.7751 61.3345 63.7776C60.5093 64.7802 59.4872 65.6029 58.3315 66.1949C57.1758 66.787 55.911 67.1358 54.6152 67.2199C53.3194 67.304 52.0201 67.1216 50.7976 66.6838C49.5751 66.2461 48.4553 65.5624 47.5074 64.6749C46.5594 63.7875 45.8035 62.7151 45.2862 61.524C44.769 60.333 44.5014 59.0485 44.5 57.75V26.875Z" stroke="white" stroke-width="3" stroke-linecap="round" stroke-linejoin="round"/>
<path d="M51.6249 45.875C49.631 45.1736 47.8898 43.8966 46.6216 42.2056C45.3534 40.5147 44.615 38.4856 44.4999 36.375C44.3849 38.4856 43.6465 40.5147 42.3783 42.2056C41.1101 43.8966 39.3689 45.1736 37.3749 45.875M57.7976 30.4375C58.3724 29.4414 58.6975 28.3209 58.7452 27.1719M30.2571 27.1719C30.304 28.3207 30.6283 29.4412 31.2023 30.4375M24.2578 40.878C24.6923 40.5241 25.1572 40.2094 25.6472 39.9375M63.3527 39.9375C63.8426 40.2094 64.3076 40.5241 64.7421 40.878M30.2499 57.75C28.6132 57.7508 27.0039 57.3286 25.5783 56.5245M63.4216 56.5245C61.9959 57.3286 60.3867 57.7508 58.7499 57.75" stroke="white" stroke-width="3" stroke-linecap="round" stroke-linejoin="round"/>
</svg>
