<svg width="88" height="88" viewBox="0 0 88 88" fill="none" xmlns="http://www.w3.org/2000/svg">
<circle cx="44" cy="44" r="44" fill="white"/>
<rect x="12" y="12" width="64" height="64" rx="32" fill="#899481" stroke="#899481" stroke-width="2"/>
<path d="M44.9848 26.875C44.9876 25.9251 44.8032 24.9842 44.4425 24.1076C44.0818 23.2311 43.5521 22.4367 42.8845 21.771C42.217 21.1053 41.425 20.5819 40.5552 20.2315C39.6855 19.8811 38.7555 19.7108 37.8199 19.7306C36.8844 19.7503 35.9622 19.9599 35.1075 20.3468C34.2529 20.7337 33.4831 21.2901 32.8435 21.9835C32.2038 22.6768 31.7072 23.493 31.3828 24.384C31.0584 25.275 30.9128 26.2229 30.9545 27.1719C29.5793 27.5308 28.3026 28.2027 27.2211 29.1367C26.1396 30.0707 25.2817 31.2423 24.7122 32.5628C24.1428 33.8832 23.8768 35.3179 23.9344 36.7581C23.9921 38.1984 24.3718 39.6064 25.0448 40.8756C23.8614 41.8516 22.9309 43.1063 22.3341 44.5306C21.7373 45.9549 21.4923 47.5057 21.6206 49.048C21.7488 50.5903 22.2463 52.0774 23.0698 53.3801C23.8933 54.6827 25.0178 55.7613 26.3456 56.5221C26.1816 57.8099 26.2795 59.1182 26.6331 60.3661C26.9867 61.614 27.5886 62.7751 28.4016 63.7776C29.2145 64.7802 30.2213 65.6029 31.3598 66.1949C32.4982 66.787 33.7441 67.1358 35.0206 67.2199C36.2971 67.304 37.5769 67.1216 38.7812 66.6838C39.9855 66.2461 41.0886 65.5624 42.0224 64.6749C42.9562 63.7875 43.7008 62.7151 44.2103 61.524C44.7199 60.333 44.9834 59.0485 44.9848 57.75V26.875Z" stroke="white" stroke-width="3" stroke-linecap="round" stroke-linejoin="round"/>
<path d="M44.9849 26.875C44.9821 25.9251 45.1665 24.9842 45.5272 24.1076C45.8879 23.2311 46.4176 22.4367 47.0852 21.771C47.7528 21.1053 48.5447 20.5819 49.4145 20.2315C50.2842 19.8811 51.2142 19.7108 52.1498 19.7306C53.0853 19.7503 54.0075 19.9599 54.8622 20.3468C55.7168 20.7337 56.4866 21.2901 57.1262 21.9835C57.7659 22.6768 58.2625 23.493 58.5869 24.384C58.9113 25.275 59.0569 26.2229 59.0152 27.1719C60.3904 27.5308 61.6671 28.2027 62.7486 29.1367C63.8301 30.0707 64.688 31.2423 65.2575 32.5628C65.8269 33.8832 66.0929 35.3179 66.0353 36.7581C65.9777 38.1984 65.5979 39.6064 64.9249 40.8756C66.1083 41.8516 67.0389 43.1063 67.6356 44.5306C68.2324 45.9549 68.4774 47.5057 68.3492 49.048C68.2209 50.5903 67.7234 52.0774 66.8999 53.3801C66.0764 54.6827 64.9519 55.7613 63.6241 56.5221C63.7881 57.8099 63.6902 59.1182 63.3366 60.3661C62.983 61.614 62.3811 62.7751 61.5681 63.7776C60.7552 64.7802 59.7484 65.6029 58.6099 66.1949C57.4715 66.787 56.2256 67.1358 54.9491 67.2199C53.6726 67.304 52.3928 67.1216 51.1885 66.6838C49.9842 66.2461 48.8811 65.5624 47.9473 64.6749C47.0135 63.7875 46.2689 62.7151 45.7594 61.524C45.2498 60.333 44.9863 59.0485 44.9849 57.75V26.875Z" stroke="white" stroke-width="3" stroke-linecap="round" stroke-linejoin="round"/>
<path d="M52.0036 45.875C50.0394 45.1736 48.3242 43.8966 47.0749 42.2056C45.8256 40.5147 45.0983 38.4856 44.9849 36.375C44.8716 38.4856 44.1442 40.5147 42.8949 42.2056C41.6456 43.8966 39.9305 45.1736 37.9663 45.875M58.0841 30.4375C58.6503 29.4414 58.9706 28.3209 59.0176 27.1719M30.9546 27.1719C31.0009 28.3207 31.3204 29.4412 31.8858 30.4375M25.0449 40.878C25.4729 40.5241 25.9309 40.2094 26.4136 39.9375M63.5563 39.9375C64.0389 40.2094 64.4969 40.5241 64.9249 40.878M30.9476 57.75C29.3353 57.7508 27.7501 57.3286 26.3457 56.5245M63.6241 56.5245C62.2198 57.3286 60.6346 57.7508 59.0222 57.75" stroke="white" stroke-width="3" stroke-linecap="round" stroke-linejoin="round"/>
</svg>
